<svg width="173" height="162" viewBox="0 0 173 162" fill="none" xmlns="http://www.w3.org/2000/svg">
<path d="M172.744 107.457C170.569 108.152 168.757 108.737 166.944 109.285C162.594 110.565 158.281 111.845 153.931 113.052C149.436 114.331 144.941 115.538 140.447 116.818C133.414 118.866 126.382 120.901 119.35 122.924C113.26 124.68 107.207 126.398 101.117 128.153C97.1656 129.287 93.2508 130.53 89.3359 131.554C88.0672 131.883 86.7985 133.09 85.4211 131.773C84.2249 132.212 82.7387 132.358 81.8687 133.163C80.4258 134.493 78.5654 135.27 76.6126 135.357C73.314 135.613 70.3054 136.783 67.2605 137.843C61.9319 139.781 56.6396 141.792 51.3111 143.767H51.2748L43.5176 146.217C41.9951 146.4 40.6902 147.314 39.204 147.716C37.6091 148.155 36.1229 148.74 34.4917 149.288C32.8605 149.837 31.193 150.276 29.5618 150.824C27.9307 151.373 26.2995 151.994 24.6683 152.579C23.1096 153.164 21.6234 153.676 20.0284 154.298C18.4335 154.92 16.8386 155.578 15.2074 156.199L10.3863 158.101C8.8276 158.686 7.30515 159.308 5.74646 159.856C4.18777 160.405 2.70157 161.355 0.744141 161.502C1.56658 160.13 2.79702 159.055 4.26026 158.43C11.075 155.505 17.8898 152.616 24.6683 149.618C29.5256 147.46 34.3467 145.266 39.1677 142.963C40.9695 142.049 42.5432 140.737 43.7713 139.123C44.3876 139.379 45.0038 139.672 45.9825 140.11C46.1637 139.306 46.3087 138.538 46.4537 137.843C47.4855 137.131 48.4778 136.362 49.4261 135.54C50.7311 134.333 54.1022 133.748 54.1022 133.748L53.3047 131.993C53.9778 131.675 54.6676 131.394 55.3709 131.152C61.7507 128.848 68.1304 126.618 74.474 124.351C78.0626 123.071 81.6512 121.827 85.2036 120.438C89.7347 118.61 94.1207 116.379 98.7243 114.807C110.36 110.931 122.141 107.274 133.813 103.544C135.227 103.069 136.64 102.667 138.38 102.155C136.967 100.473 135.807 99.0103 134.574 97.6573C131.312 94.1836 127.905 90.8561 124.787 87.2726C122.431 84.5667 119.676 82.1168 118.407 78.6065C118.19 77.9848 117.574 77.5095 117.102 76.961C116.776 77.3267 116.595 77.5095 116.232 77.8751C114.891 76.3759 113.586 74.8767 111.991 73.0484C111.629 74.1088 111.448 74.5842 111.194 75.279C110.795 74.8402 110.469 74.4745 110.07 73.9991C109.993 74.2011 109.933 74.409 109.889 74.6208C109.889 75.9737 109.925 77.3266 109.925 78.6796C109.925 78.9721 109.816 79.2281 109.816 79.5206C109.635 82.9212 109.526 86.3219 109.345 89.686C109.273 91.2217 109.091 92.7209 109.019 94.2201C108.946 95.4634 109.019 96.7066 109.019 98.0961C107.605 97.8036 106.119 97.3282 104.959 96.0119C104.162 95.1343 102.965 94.6589 102.059 93.8545C98.6881 90.9658 95.3532 88.0039 91.9821 85.0786C88.1397 81.7146 84.2249 78.4236 80.4187 75.0596C78.9688 73.7797 77.6638 72.2805 76.2501 70.9642C75.1264 69.9038 74.329 68.4411 72.6253 68.0389C72.299 67.9658 72.0816 67.4173 71.8278 67.0882C71.4116 66.582 70.937 66.1278 70.4141 65.7352C70.3555 65.688 70.2837 65.6602 70.2088 65.6559C70.1338 65.6515 70.0594 65.6707 69.9957 65.7108C69.9321 65.751 69.8823 65.81 69.8534 65.8799C69.8244 65.9498 69.8177 66.027 69.8341 66.1009V66.1375C69.8415 66.2084 69.8281 66.28 69.7956 66.3434C69.7631 66.4068 69.713 66.4592 69.6513 66.4942C69.5897 66.5292 69.5192 66.5452 69.4486 66.5403C69.3781 66.5354 69.3105 66.5098 69.2542 66.4666C65.7743 63.1756 63.2731 59.4459 60.1195 56.1549C59.6483 56.7766 59.8657 57.3982 59.9745 57.9832C60.6632 62.554 61.6057 67.0882 61.5332 71.7321C61.5322 73.4695 61.1354 75.1835 60.3732 76.7416C59.902 77.7654 59.9382 79.1184 59.9382 80.3251C60.0107 82.8847 60.2282 85.4809 60.3732 88.5524C59.6483 88.077 59.3583 87.8942 58.887 87.5651C57.6183 89.8688 57.7271 92.5015 57.3646 94.988L57.0021 92.7941L56.5671 92.7209C56.3008 93.7046 56.1069 94.7068 55.9871 95.7193C55.6971 96.4507 55.5159 98.4252 54.8634 99.0468C54.8634 99.0468 54.5372 98.2058 54.4284 98.023C54.4284 98.023 54.2835 97.6939 54.2472 97.6939C54.1673 98.4822 54.034 99.2641 53.8485 100.034C53.6672 100.802 53.486 101.57 53.3772 102.265L53.3047 102.521C53.3047 102.521 51.9998 105.738 51.8548 105.738C51.8548 105.738 51.746 104.568 51.6735 104.203C51.6373 103.544 51.6735 102.886 51.6735 102.228C51.5285 96.7798 51.4923 91.3314 51.2023 85.9562C50.9123 80.581 50.4411 75.1693 49.8974 69.7575C49.2449 63.6875 48.5199 57.581 47.7224 51.5111C47.3237 48.5858 46.7075 45.6605 46.1275 42.7718C46.0187 42.2233 45.8375 41.492 45.4388 41.2726C42.8651 39.6637 41.9226 36.9944 40.9077 34.3616C38.1765 27.642 34.3949 21.4076 29.7068 15.8958C27.2419 13.0802 25.1758 9.97211 22.8921 6.86401L22.5658 5.21854C22.5296 5.3648 22.5296 5.54763 22.4934 5.76703C20.3909 4.52378 19.3035 2.54922 17.926 0.794054L18.216 0.501526C19.5572 1.59851 20.8984 2.62235 22.1671 3.71933L22.2759 3.82903L24.1608 5.43793C28.6919 9.09453 33.078 12.7146 37.4641 16.298C41.8501 19.8815 46.1637 23.5015 50.6948 26.9022C49.7886 25.8783 48.9186 24.8545 48.0124 23.8306C48.1422 23.7181 48.2633 23.5958 48.3749 23.465C48.7706 23.6741 49.1467 23.9189 49.4986 24.1963C52.7972 27.6335 56.0234 31.1073 59.3583 34.5079C63.3456 38.6033 67.3692 42.6255 71.3928 46.6478C71.8603 47.1101 72.3989 47.4929 72.9878 47.7813C76.5401 49.4999 78.8238 52.5715 81.2525 55.5333C86.4723 61.8592 91.0759 68.7336 97.1294 74.3648C97.6731 74.8767 98.2531 75.3521 98.7968 75.864C98.9056 75.7909 99.0506 75.7177 99.1593 75.6446C98.9418 74.2551 98.6156 72.8656 98.5068 71.4395C98.0354 65.8134 97.1632 60.2287 95.8969 54.7289C95.7348 53.9461 95.5167 53.1762 95.2445 52.4252C94.157 49.3902 93.1058 46.2821 91.8733 43.2837C91.0857 41.4504 90.1649 39.6782 89.1184 37.9817C88.6834 37.2503 88.3935 36.6287 88.8284 35.6049C90.2784 36.8481 91.6558 38.0182 92.9608 39.1883C95.1357 41.1995 97.2019 43.3203 99.4493 45.2217C100.935 46.465 102.712 47.306 104.343 48.3664C105.612 49.1708 106.989 49.8656 107.786 51.3648C107.46 51.6573 107.098 51.8767 106.808 52.1693C106.119 52.8274 106.155 53.5588 106.772 54.2901C108.294 56.0087 109.708 57.8004 111.303 59.4824C114.891 63.3219 118.516 67.0882 122.358 70.7448C120.437 66.1375 117.32 62.3346 114.275 58.4952C115.834 59.3728 116.885 60.7623 118.081 61.9689C118.19 62.0786 118.226 62.2249 118.335 62.3346C122.141 66.686 125.802 71.1104 129.753 75.3155C131.892 77.6192 134.393 79.5937 136.858 81.6049C137.945 82.4825 139.395 83.0309 140.592 83.7623C141.788 84.4936 143.165 85.1152 144.144 86.1025C145.703 87.6748 147.189 89.2472 149.001 90.6001C151.285 92.3187 153.242 94.5127 155.345 96.4507C156.215 97.182 157.121 97.9133 158.027 98.5715C159.658 99.7416 161.326 100.875 162.993 102.045C165.563 103.908 168.351 105.443 171.294 106.616C171.657 106.799 171.983 107.055 172.744 107.457Z" fill="white"/>
</svg>
